<?xml version="1.0" standalone="no"?>
<!DOCTYPE svg PUBLIC "-//W3C//DTD SVG 20010904//EN"
 "http://www.w3.org/TR/2001/REC-SVG-20010904/DTD/svg10.dtd">
<svg version="1.0" xmlns="http://www.w3.org/2000/svg"
 width="700.000000pt" height="700.000000pt" viewBox="0 0 700.000000 700.000000"
 preserveAspectRatio="xMidYMid meet">
<metadata>
Created by potrace 1.14, written by Peter Selinger 2001-2017
</metadata>
<g transform="translate(0.000000,700.000000) scale(0.100000,-0.100000)"
fill="#000000" stroke="none">
<path d="M3377 6604 c-1 -1 -49 -4 -107 -8 -483 -30 -992 -196 -1417 -463
-506 -317 -912 -776 -1166 -1315 -25 -53 -48 -107 -52 -120 -4 -12 -11 -27
-15 -33 -15 -19 -119 -337 -135 -415 -2 -8 -10 -44 -19 -80 -8 -36 -18 -85
-21 -110 -4 -24 -8 -47 -10 -50 -2 -3 -6 -34 -10 -70 -4 -36 -8 -67 -10 -70
-8 -13 -18 -241 -18 -385 0 -195 12 -353 38 -495 3 -14 8 -42 11 -63 3 -21 19
-93 35 -159 138 -565 411 -1050 824 -1464 311 -311 652 -536 1060 -697 114
-45 300 -106 375 -122 145 -33 248 -53 310 -61 25 -3 52 -7 60 -9 99 -26 605
-26 770 -1 14 2 63 10 110 16 47 7 123 21 170 32 47 11 92 21 100 23 215 47
577 192 790 318 39 23 219 137 235 149 6 4 55 42 110 84 467 358 828 850 1028
1404 64 177 134 454 152 599 3 23 7 55 9 70 14 85 20 199 20 381 1 179 -9 383
-18 400 -2 3 -7 30 -10 60 -4 30 -13 87 -21 125 -8 39 -16 84 -19 100 -32 180
-203 641 -297 795 -5 8 -25 44 -45 80 -159 282 -442 621 -685 820 -51 41 -97
80 -103 85 -40 38 -269 190 -371 248 -230 128 -508 241 -745 302 -92 24 -216
50 -290 61 -19 3 -62 9 -95 14 -93 14 -237 23 -388 24 -76 1 -139 1 -140 0z"/>
</g>
</svg>
